<svg xmlns="http://www.w3.org/2000/svg" xmlns:xlink="http://www.w3.org/1999/xlink" xmlns:fi="http://pattern.flaticon.com/" x="0" y="0" width="700" height="350" viewBox="0 0 700 350"><rect x="0px" y="0px" width="100%" height="100%" opacity="1" fill="#ffffff"/><defs><g transform="matrix(0.1190476194024086 0 0 0.1190476194024086 200 214)" id="L1_1"><path d="M479.781,476h-375c-40.317,0-73-32.683-73-73v-14c0-40.317,32.683-73,73-73h375V476z" fill="#ffebb7"/><rect x="47px" y="332px" width="40px" height="128px" fill="#5c546a"/><path d="M441.781,292h-426V180h426c12.15,0,22,9.85,22,22v68C463.781,282.15,453.931,292,441.781,292z" fill="#ffebb7"/><rect x="71px" y="36px" width="408px" height="120px" fill="#ffebb7"/><path d="M480,492H112c-52.934,0-96-43.062-96-96s43.066-96,96-96h368c8.836,0,16,7.164,16,16    s-7.164,16-16,16H112c-35.289,0-64,28.711-64,64s28.711,64,64,64h368c8.836,0,16,7.164,16,16S488.836,492,480,492z" fill="#00c37a"/><path d="M432,300H8c-4.422,0-8-3.578-8-8s3.578-8,8-8h424c13.234,0,24-10.766,24-24v-48     c0-13.234-10.766-24-24-24H8c-4.422,0-8-3.578-8-8s3.578-8,8-8h424c22.055,0,40,17.945,40,40v48C472,282.055,454.055,300,432,300     z" fill="#009bca"/><path d="M479.781,76h-368c-4.418,0-8-3.582-8-8l0,0c0-4.418,3.582-8,8-8h368V76z" fill="#e6be94"/><path d="M479.781,108h-368c-4.418,0-8-3.582-8-8l0,0c0-4.418,3.582-8,8-8h368V108z" fill="#e6be94"/><path d="M479.781,140h-368c-4.418,0-8-3.582-8-8l0,0c0-4.418,3.582-8,8-8h368V140z" fill="#e6be94"/><path d="M15.781,204h416c4.418,0,8,3.582,8,8l0,0c0,4.418-3.582,8-8,8h-416    C15.781,220,15.781,204,15.781,204z" fill="#e6be94"/><path d="M15.781,236h416c4.418,0,8,3.582,8,8l0,0c0,4.418-3.582,8-8,8h-416    C15.781,252,15.781,236,15.781,236z" fill="#e6be94"/><path d="M15.781,268h416c4.418,0,8,3.582,8,8l0,0c0,4.418-3.582,8-8,8h-416    C15.781,284,15.781,268,15.781,268z" fill="#e6be94"/><path d="M488,172H104c-26.469,0-48-21.531-48-48V60c0-26.469,21.531-48,48-48h384c8.836,0,16,7.164,16,16    s-7.164,16-16,16H104c-8.824,0-16,7.176-16,16v64c0,8.82,7.176,16,16,16h384c8.836,0,16,7.164,16,16S496.836,172,488,172z" fill="#ff4f19"/><path d="M111.781,444c-4.422,0-8,3.578-8,8s3.578,8,8,8h368v-16H111.781z" fill="#e6be94"/><path d="M111.781,412c-4.422,0-8,3.578-8,8s3.578,8,8,8h368v-16H111.781z" fill="#e6be94"/><path d="M111.781,380c-4.422,0-8,3.578-8,8s3.578,8,8,8h368v-16H111.781z" fill="#e6be94"/><path d="M111.781,348c-4.422,0-8,3.578-8,8s3.578,8,8,8h368v-16H111.781z" fill="#e6be94"/></g><g transform="matrix(0.1190476194024086 0 0 0.1190476194024086 40 315)" id="L1_2"><path d="M479.781,476h-375c-40.317,0-73-32.683-73-73v-14c0-40.317,32.683-73,73-73h375V476z" fill="#ffebb7"/><rect x="47px" y="332px" width="40px" height="128px" fill="#5c546a"/><path d="M441.781,292h-426V180h426c12.15,0,22,9.85,22,22v68C463.781,282.15,453.931,292,441.781,292z" fill="#ffebb7"/><rect x="71px" y="36px" width="408px" height="120px" fill="#ffebb7"/><path d="M480,492H112c-52.934,0-96-43.062-96-96s43.066-96,96-96h368c8.836,0,16,7.164,16,16    s-7.164,16-16,16H112c-35.289,0-64,28.711-64,64s28.711,64,64,64h368c8.836,0,16,7.164,16,16S488.836,492,480,492z" fill="#00c37a"/><path d="M432,300H8c-4.422,0-8-3.578-8-8s3.578-8,8-8h424c13.234,0,24-10.766,24-24v-48     c0-13.234-10.766-24-24-24H8c-4.422,0-8-3.578-8-8s3.578-8,8-8h424c22.055,0,40,17.945,40,40v48C472,282.055,454.055,300,432,300     z" fill="#009bca"/><path d="M479.781,76h-368c-4.418,0-8-3.582-8-8l0,0c0-4.418,3.582-8,8-8h368V76z" fill="#e6be94"/><path d="M479.781,108h-368c-4.418,0-8-3.582-8-8l0,0c0-4.418,3.582-8,8-8h368V108z" fill="#e6be94"/><path d="M479.781,140h-368c-4.418,0-8-3.582-8-8l0,0c0-4.418,3.582-8,8-8h368V140z" fill="#e6be94"/><path d="M15.781,204h416c4.418,0,8,3.582,8,8l0,0c0,4.418-3.582,8-8,8h-416    C15.781,220,15.781,204,15.781,204z" fill="#e6be94"/><path d="M15.781,236h416c4.418,0,8,3.582,8,8l0,0c0,4.418-3.582,8-8,8h-416    C15.781,252,15.781,236,15.781,236z" fill="#e6be94"/><path d="M15.781,268h416c4.418,0,8,3.582,8,8l0,0c0,4.418-3.582,8-8,8h-416    C15.781,284,15.781,268,15.781,268z" fill="#e6be94"/><path d="M488,172H104c-26.469,0-48-21.531-48-48V60c0-26.469,21.531-48,48-48h384c8.836,0,16,7.164,16,16    s-7.164,16-16,16H104c-8.824,0-16,7.176-16,16v64c0,8.82,7.176,16,16,16h384c8.836,0,16,7.164,16,16S496.836,172,488,172z" fill="#ff4f19"/><path d="M111.781,444c-4.422,0-8,3.578-8,8s3.578,8,8,8h368v-16H111.781z" fill="#e6be94"/><path d="M111.781,412c-4.422,0-8,3.578-8,8s3.578,8,8,8h368v-16H111.781z" fill="#e6be94"/><path d="M111.781,380c-4.422,0-8,3.578-8,8s3.578,8,8,8h368v-16H111.781z" fill="#e6be94"/><path d="M111.781,348c-4.422,0-8,3.578-8,8s3.578,8,8,8h368v-16H111.781z" fill="#e6be94"/></g><g transform="matrix(0.1171877309679985 0 0 0.1171877309679985 48 97)" id="L1_5"><g><path d="M441.374,79.519l-26.485,17.656l-44.141-8.828l-26.485-8.828l-35.313,8.828l-26.485-8.828   l17.656-35.313h35.313l34.607-17.303C396.73,40.101,420.875,57.916,441.374,79.519z" fill="#03aa6f"/><path d="M238.325,44.206l-8.828,26.485l-26.485,8.828l-26.485,44.141l-44.141,26.485l-61.797,8.828v26.485   l17.656,17.656v35.313L61.762,220.77l-26.485-17.656l-15.361-46.171C46.356,93.935,96.898,44.126,160.284,18.604l25.072,16.774   L238.325,44.206z" fill="#03aa6f"/><path d="M255.982,291.395 247.154,335.536 211.841,370.849 211.841,397.334 176.528,423.818    176.528,467.959 150.044,459.131 132.387,414.99 132.387,326.708 88.246,317.88 70.59,282.567 70.59,256.082 88.246,238.426    114.731,211.941 132.387,247.254 194.184,247.254 220.669,291.395z" fill="#03aa6f"/><path d="M479.335,130.987c48.193,85.978,42.702,191.996-14.125,272.526l-23.836-23.836v-35.313   l-17.656-35.313l-17.656-35.313v-35.313l-26.485-17.656l-35.313,8.828l-61.797-26.485l-8.828-61.797l26.485-26.485h52.969   l17.656,26.485l52.969,8.828l52.969-17.656L479.335,130.987z" fill="#03aa6f"/></g><path d="M308.951,88.347l35.313-8.828l26.485,8.828l44.141,8.828l26.485-17.656  c14.787,15.476,27.544,32.77,37.961,51.468l-2.648,1.501l-52.969,17.656l-52.969-8.828l-17.656-26.485h-52.969l-26.485,26.485  l8.828,61.797l61.797,26.485l35.313-8.828l26.485,17.656v35.313l17.656,35.313l17.656,35.313v35.313l23.836,23.836  c-81.528,115.526-241.275,143.079-356.792,61.55C10.311,395.815-26.494,267.691,19.916,156.942l15.361,46.171l26.485,17.656  l26.485,17.656L70.59,256.082v26.485l17.656,35.313l44.141,8.828v88.282l17.656,44.141l26.485,8.828v-44.141l35.313-26.485v-26.485  l35.313-35.313l8.828-44.141h-35.313l-26.485-44.141h-61.797l-17.656-35.313l-26.485,26.485v-35.313L70.59,185.457v-26.485  l61.797-8.828l44.141-26.485l26.485-44.141l26.485-8.828l8.828-26.485l-52.969-8.828l-25.072-16.774  c67.889-27.341,144.235-24.322,209.758,8.299l-34.607,17.303h-35.313l-17.656,35.313L308.951,88.347z" fill="#86daf1"/></g><g transform="matrix(0.1171875 0 0 0.1171875 191.99999934196467 60.00000041484833)" id="L1_6"><path d="M507.834,301.608l-54.769-48.312l52.832-50.399c1.941-1.852,2.74-4.591,2.099-7.189  c-0.642-2.597-2.629-4.655-5.211-5.401l-70.316-20.292l25.988-68.056c0.955-2.5,0.495-5.316-1.204-7.389  c-1.7-2.072-4.383-3.085-7.038-2.657l-72.274,11.652l-5.878-72.561c-0.216-2.666-1.846-5.015-4.275-6.161  c-2.429-1.146-5.291-0.917-7.504,0.601l-60.266,41.342L263.409,3.742C262.064,1.426,259.579,0,256.889,0  c-2.69,0-5.174,1.426-6.519,3.742L208.347,76.11l-72.69-41.953c-2.327-1.343-5.197-1.349-7.528-0.018  c-2.333,1.331-3.773,3.799-3.78,6.473l-0.176,72.795l-72.965-6.014c-2.675-0.22-5.275,0.997-6.807,3.194  c-1.533,2.197-1.771,5.041-0.622,7.459l31.242,65.835L6.508,209.562c-2.516,0.943-4.335,3.15-4.773,5.789  c-0.438,2.638,0.575,5.308,2.656,7.003l56.619,46.152l-50.813,52.41c-1.866,1.925-2.559,4.694-1.816,7.264  c0.744,2.57,2.81,4.55,5.419,5.194l71.055,17.551L61.56,419.936c-0.856,2.535-0.286,5.331,1.494,7.336  c1.781,2.005,4.502,2.913,7.137,2.382l71.76-14.443l8.721,72.278c0.319,2.655,2.041,4.938,4.513,5.99  c2.474,1.052,5.323,0.712,7.475-0.891l58.596-43.647l39.055,59.566c1.382,2.179,3.789,3.492,6.367,3.492  c0.098,0,0.196-0.002,0.295-0.006c2.687-0.104,5.115-1.626,6.368-3.992l34.107-62.405l61.839,38.974  c2.273,1.432,5.137,1.55,7.522,0.31c2.382-1.24,3.919-3.65,4.03-6.322l3.031-72.734l72.674,8.84c2.664,0.324,5.31-0.791,6.928-2.927  c1.618-2.137,1.966-4.969,0.914-7.43l-28.636-66.997l69.465-23.003c2.552-0.845,4.456-2.979,4.997-5.599  C510.752,306.09,509.845,303.383,507.834,301.608z" fill="#ffa600"/><ellipse cx="254px" cy="254px" rx="155px" ry="154px" fill="#ffdb2d"/><path d="M254.354,99.743c-3.884,0-7.732,0.147-11.543,0.428c80.25,5.901,143.525,72.825,143.525,154.521  c0,81.695-63.275,148.619-143.525,154.521c3.811,0.28,7.66,0.428,11.543,0.428c85.641,0,155.068-69.373,155.068-154.948  C409.422,169.116,339.995,99.743,254.354,99.743z" fill="#ffca00"/></g></defs><g fi:class="KUsePattern"><pattern id="pattern_L1_1" width="350" height="350" patternUnits="userSpaceOnUse"><use xlink:href="#L1_1" x="-350" y="-350"/><use xlink:href="#L1_1" x="0" y="-350"/><use xlink:href="#L1_1" x="350" y="-350"/><use xlink:href="#L1_1" x="-350" y="0"/><use xlink:href="#L1_1" x="0" y="0"/><use xlink:href="#L1_1" x="350" y="0"/><use xlink:href="#L1_1" x="-350" y="350"/><use xlink:href="#L1_1" x="0" y="350"/><use xlink:href="#L1_1" x="350" y="350"/></pattern><rect x="0" y="0" width="100%" height="100%" fill="url(#pattern_L1_1)"/></g><g fi:class="KUsePattern"><pattern id="pattern_L1_2" width="350" height="350" patternUnits="userSpaceOnUse"><use xlink:href="#L1_2" x="-350" y="-350"/><use xlink:href="#L1_2" x="0" y="-350"/><use xlink:href="#L1_2" x="350" y="-350"/><use xlink:href="#L1_2" x="-350" y="0"/><use xlink:href="#L1_2" x="0" y="0"/><use xlink:href="#L1_2" x="350" y="0"/><use xlink:href="#L1_2" x="-350" y="350"/><use xlink:href="#L1_2" x="0" y="350"/><use xlink:href="#L1_2" x="350" y="350"/></pattern><rect x="0" y="0" width="100%" height="100%" fill="url(#pattern_L1_2)"/></g><g fi:class="KUsePattern"><pattern id="pattern_L1_5" width="350" height="350" patternUnits="userSpaceOnUse"><use xlink:href="#L1_5" x="-350" y="-350"/><use xlink:href="#L1_5" x="0" y="-350"/><use xlink:href="#L1_5" x="350" y="-350"/><use xlink:href="#L1_5" x="-350" y="0"/><use xlink:href="#L1_5" x="0" y="0"/><use xlink:href="#L1_5" x="350" y="0"/><use xlink:href="#L1_5" x="-350" y="350"/><use xlink:href="#L1_5" x="0" y="350"/><use xlink:href="#L1_5" x="350" y="350"/></pattern><rect x="0" y="0" width="100%" height="100%" fill="url(#pattern_L1_5)"/></g><g fi:class="KUsePattern"><pattern id="pattern_L1_6" width="350" height="350" patternUnits="userSpaceOnUse"><use xlink:href="#L1_6" x="-350" y="-350"/><use xlink:href="#L1_6" x="0" y="-350"/><use xlink:href="#L1_6" x="350" y="-350"/><use xlink:href="#L1_6" x="-350" y="0"/><use xlink:href="#L1_6" x="0" y="0"/><use xlink:href="#L1_6" x="350" y="0"/><use xlink:href="#L1_6" x="-350" y="350"/><use xlink:href="#L1_6" x="0" y="350"/><use xlink:href="#L1_6" x="350" y="350"/></pattern><rect x="0" y="0" width="100%" height="100%" fill="url(#pattern_L1_6)"/></g></svg>